0
SECTION
2
HEADER
9
$INSUNITS
70
4
9
$ACADVER
1
AC1014
9
$HANDSEED
5
FFFF
0
ENDSEC
0
SECTION
2
TABLES
0
TABLE
2
VPORT
5
8
100
AcDbSymbolTable
0
ENDTAB
0
TABLE
2
LTYPE
5
5
100
AcDbSymbolTable
0
LTYPE
5
14
100
AcDbSymbolTableRecord
100
AcDbLinetypeTableRecord
2
BYBLOCK
70
0
0
LTYPE
5
15
100
AcDbSymbolTableRecord
100
AcDbLinetypeTableRecord
2
BYLAYER
70
0
0
ENDTAB
0
TABLE
2
LAYER
5
2
100
AcDbSymbolTable
70
2
0
LAYER
5
50
100
AcDbSymbolTableRecord
100
AcDbLayerTableRecord
2
0
70
0
6
CONTINUOUS
0
ENDTAB
0
TABLE
2
STYLE
5
3
100
AcDbSymbolTable
70
1
0
STYLE
5
11
100
AcDbSymbolTableRecord
100
AcDbTextStyleTableRecord
2
STANDARD
70
0
0
ENDTAB
0
TABLE
2
VIEW
5
6
100
AcDbSymbolTable
70
0
0
ENDTAB
0
TABLE
2
UCS
5
7
100
AcDbSymbolTable
70
0
0
ENDTAB
0
TABLE
2
APPID
5
9
100
AcDbSymbolTable
70
2
0
APPID
5
12
100
AcDbSymbolTableRecord
100
AcDbRegAppTableRecord
2
ACAD
70
0
0
ENDTAB
0
TABLE
2
DIMSTYLE
5
A
100
AcDbSymbolTable
70
1
0
ENDTAB
0
TABLE
2
BLOCK_RECORD
5
1
100
AcDbSymbolTable
70
1
0
BLOCK_RECORD
5
1F
100
AcDbSymbolTableRecord
100
AcDbBlockTableRecord
2
*MODEL_SPACE
0
BLOCK_RECORD
5
1B
100
AcDbSymbolTableRecord
100
AcDbBlockTableRecord
2
*PAPER_SPACE
0
ENDTAB
0
ENDSEC
0
SECTION
2
BLOCKS
0
BLOCK
5
20
100
AcDbEntity
100
AcDbBlockBegin
2
*MODEL_SPACE
0
ENDBLK
5
21
100
AcDbEntity
100
AcDbBlockEnd
0
BLOCK
5
1C
100
AcDbEntity
100
AcDbBlockBegin
2
*PAPER_SPACE
0
ENDBLK
5
1D
100
AcDbEntity
100
AcDbBlockEnd
0
ENDSEC
0
SECTION
2
ENTITIES
0
CIRCLE
5
100
100
AcDbEntity
8
0
100
AcDbCircle
10
30.969813267271785
20
-5.8154085404753495
30
0
40
0.85000000000000131
210
0
220
0
230
1
0
LWPOLYLINE
5
101
100
AcDbEntity
8
0
100
AcDbPolyline
90
6
70
1
43
0.0
10
30.214707106926749
20
-4.5180465940847903
10
29.468711783621817
20
-5.8206686846929969
10
30.22381794396685
20
-7.1180306310835544
10
31.724919427616815
20
-7.112770486865907
10
32.47091475092175
20
-5.810148396257703
10
31.715808590576717
20
-4.5127864498671428
0
CIRCLE
5
102
100
AcDbEntity
8
0
100
AcDbCircle
10
17.459210754817683
20
-2.0255509870482795
30
0
40
0.85000000000000009
210
0
220
0
230
1
0
LWPOLYLINE
5
103
100
AcDbEntity
8
0
100
AcDbPolyline
90
6
70
1
43
0.0
10
18.808446167712479
20
-2.6835001749981879
10
18.703629172429043
20
-1.1860534377707521
10
17.354393759534247
20
-0.52810424982084425
10
16.109975341922883
20
-1.3676017990983715
10
16.214792337206319
20
-2.8650485363258058
10
17.564027750101115
20
-3.5229977242757151
0
CIRCLE
5
104
100
AcDbEntity
8
0
100
AcDbCircle
10
24.884798575457431
20
-2.4676992065885712
30
0
40
0.85000000000000009
210
0
220
0
230
1
0
LWPOLYLINE
5
105
100
AcDbEntity
8
0
100
AcDbPolyline
90
6
70
1
43
0.0
10
24.134243225510922
20
-1.167699206588571
10
23.383687875564405
20
-2.467699206588569
10
24.134243225510914
20
-3.7676992065885697
10
25.635353925403944
20
-3.7676992065885724
10
26.385909275350457
20
-2.4676992065885739
10
25.635353925403948
20
-1.1676992065885727
0
CIRCLE
5
106
100
AcDbEntity
8
0
100
AcDbCircle
10
16.208706868907523
20
-6.8546211617223669
30
0
40
0.85000000000000087
210
0
220
0
230
1
0
LWPOLYLINE
5
107
100
AcDbEntity
8
0
100
AcDbPolyline
90
6
70
1
43
0.0
10
15.249444888472066
20
-5.7000001043081285
10
14.729144711224611
20
-7.108055876956926
10
15.68840669166007
20
-8.2626769343711644
10
17.16796884934298
20
-8.0092422191366062
10
17.688269026590437
20
-6.6011864464878105
10
16.729007046154976
20
-5.4465653890735712
0
CIRCLE
5
108
100
AcDbEntity
8
0
100
AcDbCircle
10
27.897989279224223
20
-9.5331118912831148
30
0
40
0.85000000000000075
210
0
220
0
230
1
0
LWPOLYLINE
5
109
100
AcDbEntity
8
0
100
AcDbPolyline
90
6
70
1
43
0.0
10
28.648544629170733
20
-10.833111891283114
10
29.399099979117249
20
-9.5331118912831165
10
28.648544629170736
20
-8.2331118912831158
10
27.14743392927771
20
-8.233111891283114
10
26.396878579331194
20
-9.533111891283113
10
27.147433929277707
20
-10.833111891283114
0
CIRCLE
5
110
100
AcDbEntity
8
0
100
AcDbCircle
10
23.431185506459038
20
-6.3248160504161461
30
0
40
0.84999999999999964
210
0
220
0
230
1
0
LWPOLYLINE
5
111
100
AcDbEntity
8
0
100
AcDbPolyline
90
6
70
1
43
0.0
10
24.177867338269611
20
-7.627044745913734
10
24.932289554202306
20
-6.3292849632726886
10
24.185607722391733
20
-5.0270562677751007
10
22.684503674648461
20
-5.02258735491856
10
21.930081458715765
20
-6.3203471375596045
10
22.676763290526338
20
-7.6225758330571907
0
CIRCLE
5
112
100
AcDbEntity
8
0
100
AcDbCircle
10
19.66723245616398
20
-9.5243009060527903
30
0
40
0.85000000000000053
210
0
220
0
230
1
0
LWPOLYLINE
5
113
100
AcDbEntity
8
0
100
AcDbPolyline
90
6
70
1
43
0.0
10
20.400325187146716
20
-10.834227767031521
10
21.168208760362532
20
-9.5443874081813931
10
20.435116029379799
20
-8.2344605472026657
10
18.93413972518124
20
-8.2143740450740612
10
18.166256151965424
20
-9.5042144039241876
10
18.899348882948161
20
-10.814141264902918
0
ENDSEC
0
SECTION
2
OBJECTS
0
DICTIONARY
5
C
100
AcDbDictionary
3
ACAD_GROUP
350
D
3
ACAD_MLINESTYLE
350
17
0
DICTIONARY
5
D
100
AcDbDictionary
0
DICTIONARY
5
1A
330
C
100
AcDbDictionary
0
DICTIONARY
5
17
100
AcDbDictionary
0
ENDSEC
0
EOF
